<?xml version="1.0" standalone="no"?>
<!DOCTYPE svg PUBLIC "-//W3C//DTD SVG 20010904//EN"
 "http://www.w3.org/TR/2001/REC-SVG-20010904/DTD/svg10.dtd">
<svg version="1.0" xmlns="http://www.w3.org/2000/svg"
 width="250px" height="100px" viewBox="0 0 1801.000000 756.000000"
 preserveAspectRatio="xMidYMid meet">

<!-- 이전의 코드는 여기에 왔다 -->
<g transform="translate(0.000000,756.000000) scale(0.100000,-0.100000)" fill="#FF0000" stroke="none">
    <path d="M1870 3785 c0 -1525 3 -1915 13 -1915 16 0 535 69 564 76 l23 4 2 1036 3 1036 344 -988 c189 -544 345 -991 347 -994 1 -3 149 10 328 30 l326 35 0 1797 0 1798 -300 0 -300 0 -2 -1074 -3 -1075 -387 1072 -386 1072 -286 3 -286 2 0 -1915z"/>
    <path d="M4400 3929 l0 -1771 43 6 c114 16 1204 98 1490 112 l137 7 0 298 0 298 -52 -5 c-29 -2 -226 -16 -438 -30 -212 -13 -427 -28 -478 -32 -51 -4 -95 -6 -97 -3 -3 2 -5 203 -5 446 l0 442 263 6 c144 4 326 7 405 7 l142 0 0 297 0 296 -405 -6 -405 -6 0 405 0 404 535 0 535 0 0 300 0 300 -835 0 -835 0 0 -1771z"/>
    <path d="M6460 5400 l0 -300 315 0 315 0 0 -1386 0 -1386 48 6 c26 3 161 8 300 12 l252 6 0 1374 0 1374 315 0 315 0 0 300 0 300 -930 0 -930 0 0 -300z"/>
    <path d="M8700 4035 l0 -1665 300 0 300 0 0 685 0 685 410 0 410 0 -2 293 -3 292 -407 3 -408 2 0 385 0 385 540 0 540 0 0 300 0 300 -840 0 -840 0 0 -1665z"/>
    <path d="M10760 4021 l0 -1679 113 -6 c61 -3 173 -8 247 -11 239 -10 739 -35 975 -50 127 -8 247 -15 268 -15 l37 0 0 295 0 295 -22 0 c-13 0 -122 7 -243 14 -121 8 -326 20 -455 26 -129 6 -254 13 -277 16 l-43 5 0 1395 0 1394 -300 0 -300 0 0 -1679z"/>
    <path d="M12890 3960 c0 -1448 2 -1740 13 -1740 22 0 487 -39 540 -45 l47 -6 0 1766 0 1765 -300 0 -300 0 0 -1740z"/>
    <path d="M14012 5683 c3 -10 159 -416 348 -902 l343 -884 -169 -391 c-93 -215 -264 -611 -380 -881 -117 -269 -211 -491 -209 -493 2 -2 386 -44 598 -64 28 -3 29 -2 247 502 119 278 221 505 225 505 4 0 104 -251 223 -557 215 -556 216 -558 246 -563 100 -16 638 -86 644 -83 5 2 -166 453 -380 1003 -213 550 -388 1004 -388 1009 0 4 159 378 354 830 195 451 371 858 390 904 l35 82 -330 -2 -330 -3 -213 -493 c-117 -271 -216 -494 -220 -495 -4 -1 -94 221 -199 493 l-192 495 -324 3 c-305 2 -323 1 -319 -15z"/>
</g>
<!-- 이후의 코드는 여기에 왔다 -->

</svg>
